<svg width="288" height="108" viewBox="0 0 288 108" fill="none" xmlns="http://www.w3.org/2000/svg">
<rect width="257.074" height="108" rx="24" fill="#2071C1"/>
<path d="M257.074 74.5V81L257.268 83.41C257.46 85.7936 257.955 88.1431 258.741 90.4016V90.4016C260.735 96.1339 265.295 100.604 271.066 102.484L283.508 106.537C284.32 106.801 284.13 108 283.276 108H219.383L257.074 74.5Z" fill="#2071C1"/>
<path d="M20.9941 45H17.7422V25.9805H20.9941V45ZM17.4785 20.9355C17.4785 20.4082 17.6367 19.9629 17.9531 19.5996C18.2812 19.2363 18.7617 19.0547 19.3945 19.0547C20.0273 19.0547 20.5078 19.2363 20.8359 19.5996C21.1641 19.9629 21.3281 20.4082 21.3281 20.9355C21.3281 21.4629 21.1641 21.9023 20.8359 22.2539C20.5078 22.6055 20.0273 22.7812 19.3945 22.7812C18.7617 22.7812 18.2812 22.6055 17.9531 22.2539C17.6367 21.9023 17.4785 21.4629 17.4785 20.9355ZM28.5 17.666L30.3633 18.9316C29.2734 20.4199 28.7109 22.0254 28.6758 23.748V26.1387H25.4414V24.0996C25.4414 22.9043 25.7227 21.7207 26.2852 20.5488C26.8594 19.377 27.5977 18.416 28.5 17.666ZM36.1289 25.9805L36.2168 28.0898C37.6113 26.4492 39.4922 25.6289 41.8594 25.6289C44.5195 25.6289 46.3301 26.6484 47.291 28.6875C47.9238 27.7734 48.7441 27.0352 49.752 26.4727C50.7715 25.9102 51.9727 25.6289 53.3555 25.6289C57.5273 25.6289 59.6484 27.8379 59.7188 32.2559V45H56.4668V32.4492C56.4668 31.0898 56.1562 30.0762 55.5352 29.4082C54.9141 28.7285 53.8711 28.3887 52.4062 28.3887C51.1992 28.3887 50.1973 28.752 49.4004 29.4785C48.6035 30.1934 48.1406 31.1602 48.0117 32.3789V45H44.7422V32.5371C44.7422 29.7715 43.3887 28.3887 40.6816 28.3887C38.5488 28.3887 37.0898 29.2969 36.3047 31.1133V45H33.0527V25.9805H36.1289ZM72.2695 35.3496C72.2695 32.3848 72.9316 30.0234 74.2559 28.2656C75.5918 26.5078 77.4141 25.6289 79.7227 25.6289C81.5742 25.6289 83.1035 26.3203 84.3105 27.7031V18H89.4082V45H84.8203L84.5742 42.9785C83.3086 44.5605 81.6797 45.3516 79.6875 45.3516C77.4492 45.3516 75.6504 44.4727 74.291 42.7148C72.9434 40.9453 72.2695 38.4902 72.2695 35.3496ZM77.3496 35.7188C77.3496 37.5 77.6602 38.8652 78.2812 39.8145C78.9023 40.7637 79.8047 41.2383 80.9883 41.2383C82.5586 41.2383 83.666 40.5762 84.3105 39.252V31.7461C83.6777 30.4219 82.582 29.7598 81.0234 29.7598C78.5742 29.7598 77.3496 31.7461 77.3496 35.7188ZM92.5547 35.3145C92.5547 33.4277 92.918 31.7461 93.6445 30.2695C94.3711 28.793 95.4141 27.6504 96.7734 26.8418C98.1445 26.0332 99.7324 25.6289 101.537 25.6289C104.104 25.6289 106.195 26.4141 107.812 27.9844C109.441 29.5547 110.35 31.6875 110.537 34.3828L110.572 35.6836C110.572 38.6016 109.758 40.9453 108.129 42.7148C106.5 44.4727 104.314 45.3516 101.572 45.3516C98.8301 45.3516 96.6387 44.4727 94.998 42.7148C93.3691 40.957 92.5547 38.5664 92.5547 35.543V35.3145ZM97.6348 35.6836C97.6348 37.4883 97.9746 38.8711 98.6543 39.832C99.334 40.7812 100.307 41.2559 101.572 41.2559C102.803 41.2559 103.764 40.7871 104.455 39.8496C105.146 38.9004 105.492 37.3887 105.492 35.3145C105.492 33.5449 105.146 32.1738 104.455 31.2012C103.764 30.2285 102.791 29.7422 101.537 29.7422C100.295 29.7422 99.334 30.2285 98.6543 31.2012C97.9746 32.1621 97.6348 33.6562 97.6348 35.6836ZM130.242 38.0918L132.738 25.9805H137.643L132.791 45H128.537L124.934 33.0293L121.33 45H117.094L112.242 25.9805H117.146L119.625 38.0742L123.105 25.9805H126.779L130.242 38.0918ZM144.85 25.9805L145.008 28.1777C146.367 26.4785 148.189 25.6289 150.475 25.6289C152.49 25.6289 153.99 26.2207 154.975 27.4043C155.959 28.5879 156.463 30.3574 156.486 32.7129V45H151.406V32.8359C151.406 31.7578 151.172 30.9785 150.703 30.498C150.234 30.0059 149.455 29.7598 148.365 29.7598C146.936 29.7598 145.863 30.3691 145.148 31.5879V45H140.068V25.9805H144.85ZM18.3398 87V71.707H15.5098V67.9805H18.3398V66.3633C18.3398 64.2305 18.9492 62.5781 20.168 61.4062C21.3984 60.2227 23.1152 59.6309 25.3184 59.6309C26.0215 59.6309 26.8828 59.748 27.9023 59.9824L27.8496 63.9199C27.4277 63.8145 26.9121 63.7617 26.3027 63.7617C24.3926 63.7617 23.4375 64.6582 23.4375 66.4512V67.9805H27.2168V71.707H23.4375V87H18.3398ZM29.0625 77.3145C29.0625 75.4277 29.4258 73.7461 30.1523 72.2695C30.8789 70.793 31.9219 69.6504 33.2812 68.8418C34.6523 68.0332 36.2402 67.6289 38.0449 67.6289C40.6113 67.6289 42.7031 68.4141 44.3203 69.9844C45.9492 71.5547 46.8574 73.6875 47.0449 76.3828L47.0801 77.6836C47.0801 80.6016 46.2656 82.9453 44.6367 84.7148C43.0078 86.4727 40.8223 87.3516 38.0801 87.3516C35.3379 87.3516 33.1465 86.4727 31.5059 84.7148C29.877 82.957 29.0625 80.5664 29.0625 77.543V77.3145ZM34.1426 77.6836C34.1426 79.4883 34.4824 80.8711 35.1621 81.832C35.8418 82.7812 36.8145 83.2559 38.0801 83.2559C39.3105 83.2559 40.2715 82.7871 40.9629 81.8496C41.6543 80.9004 42 79.3887 42 77.3145C42 75.5449 41.6543 74.1738 40.9629 73.2012C40.2715 72.2285 39.2988 71.7422 38.0449 71.7422C36.8027 71.7422 35.8418 72.2285 35.1621 73.2012C34.4824 74.1621 34.1426 75.6562 34.1426 77.6836ZM60.8965 72.7441C60.2051 72.6504 59.5957 72.6035 59.0684 72.6035C57.1465 72.6035 55.8867 73.2539 55.2891 74.5547V87H50.209V67.9805H55.0078L55.1484 70.248C56.168 68.502 57.5801 67.6289 59.3848 67.6289C59.9473 67.6289 60.4746 67.7051 60.9668 67.8574L60.8965 72.7441ZM82.623 81.7441C82.623 81.123 82.3125 80.6367 81.6914 80.2852C81.082 79.9219 80.0977 79.5996 78.7383 79.3184C74.2148 78.3691 71.9531 76.4473 71.9531 73.5527C71.9531 71.8652 72.6504 70.459 74.0449 69.334C75.4512 68.1973 77.2852 67.6289 79.5469 67.6289C81.9609 67.6289 83.8887 68.1973 85.3301 69.334C86.7832 70.4707 87.5098 71.9473 87.5098 73.7637H82.4297C82.4297 73.0371 82.1953 72.4395 81.7266 71.9707C81.2578 71.4902 80.5254 71.25 79.5293 71.25C78.6738 71.25 78.0117 71.4434 77.543 71.8301C77.0742 72.2168 76.8398 72.709 76.8398 73.3066C76.8398 73.8691 77.1035 74.3262 77.6309 74.6777C78.1699 75.0176 79.0723 75.3164 80.3379 75.5742C81.6035 75.8203 82.6699 76.1016 83.5371 76.418C86.2207 77.4023 87.5625 79.1074 87.5625 81.5332C87.5625 83.2676 86.8184 84.6738 85.3301 85.752C83.8418 86.8184 81.9199 87.3516 79.5645 87.3516C77.9707 87.3516 76.5527 87.0703 75.3105 86.5078C74.0801 85.9336 73.1133 85.1543 72.4102 84.1699C71.707 83.1738 71.3555 82.1016 71.3555 80.9531H76.1719C76.2188 81.8555 76.5527 82.5469 77.1738 83.0273C77.7949 83.5078 78.627 83.748 79.6699 83.748C80.6426 83.748 81.375 83.5664 81.8672 83.2031C82.3711 82.8281 82.623 82.3418 82.623 81.7441ZM90.0586 77.3145C90.0586 75.4277 90.4219 73.7461 91.1484 72.2695C91.875 70.793 92.918 69.6504 94.2773 68.8418C95.6484 68.0332 97.2363 67.6289 99.041 67.6289C101.607 67.6289 103.699 68.4141 105.316 69.9844C106.945 71.5547 107.854 73.6875 108.041 76.3828L108.076 77.6836C108.076 80.6016 107.262 82.9453 105.633 84.7148C104.004 86.4727 101.818 87.3516 99.0762 87.3516C96.334 87.3516 94.1426 86.4727 92.502 84.7148C90.873 82.957 90.0586 80.5664 90.0586 77.543V77.3145ZM95.1387 77.6836C95.1387 79.4883 95.4785 80.8711 96.1582 81.832C96.8379 82.7812 97.8105 83.2559 99.0762 83.2559C100.307 83.2559 101.268 82.7871 101.959 81.8496C102.65 80.9004 102.996 79.3887 102.996 77.3145C102.996 75.5449 102.65 74.1738 101.959 73.2012C101.268 72.2285 100.295 71.7422 99.041 71.7422C97.7988 71.7422 96.8379 72.2285 96.1582 73.2012C95.4785 74.1621 95.1387 75.6562 95.1387 77.6836ZM115.969 67.9805L116.127 70.1074C117.475 68.4551 119.297 67.6289 121.594 67.6289C124.043 67.6289 125.725 68.5957 126.639 70.5293C127.975 68.5957 129.879 67.6289 132.352 67.6289C134.414 67.6289 135.949 68.2324 136.957 69.4395C137.965 70.6348 138.469 72.4395 138.469 74.8535V87H133.371V74.8711C133.371 73.793 133.16 73.0078 132.738 72.5156C132.316 72.0117 131.572 71.7598 130.506 71.7598C128.982 71.7598 127.928 72.4863 127.342 73.9395L127.359 87H122.279V74.8887C122.279 73.7871 122.062 72.9902 121.629 72.498C121.195 72.0059 120.457 71.7598 119.414 71.7598C117.973 71.7598 116.93 72.3574 116.285 73.5527V87H111.205V67.9805H115.969ZM151.143 87.3516C148.354 87.3516 146.08 86.4961 144.322 84.7852C142.576 83.0742 141.703 80.7949 141.703 77.9473V77.4551C141.703 75.5449 142.072 73.8398 142.811 72.3398C143.549 70.8281 144.592 69.668 145.939 68.8594C147.299 68.0391 148.846 67.6289 150.58 67.6289C153.182 67.6289 155.227 68.4492 156.715 70.0898C158.215 71.7305 158.965 74.0566 158.965 77.0684V79.1426H146.854C147.018 80.3848 147.51 81.3809 148.33 82.1309C149.162 82.8809 150.211 83.2559 151.477 83.2559C153.434 83.2559 154.963 82.5469 156.064 81.1289L158.561 83.9238C157.799 85.002 156.768 85.8457 155.467 86.4551C154.166 87.0527 152.725 87.3516 151.143 87.3516ZM150.562 71.7422C149.555 71.7422 148.734 72.082 148.102 72.7617C147.48 73.4414 147.082 74.4141 146.906 75.6797H153.973V75.2754C153.949 74.1504 153.645 73.2832 153.059 72.6738C152.473 72.0527 151.641 71.7422 150.562 71.7422ZM167.947 63.3047V67.9805H171.199V71.707H167.947V81.1992C167.947 81.9023 168.082 82.4062 168.352 82.7109C168.621 83.0156 169.137 83.168 169.898 83.168C170.461 83.168 170.959 83.127 171.393 83.0449V86.8945C170.396 87.1992 169.371 87.3516 168.316 87.3516C164.754 87.3516 162.938 85.5527 162.867 81.9551V71.707H160.09V67.9805H162.867V63.3047H167.947ZM178.986 70.0547C180.334 68.4375 182.027 67.6289 184.066 67.6289C188.191 67.6289 190.283 70.0254 190.342 74.8184V87H185.262V74.959C185.262 73.8691 185.027 73.0664 184.559 72.5508C184.09 72.0234 183.311 71.7598 182.221 71.7598C180.732 71.7598 179.654 72.334 178.986 73.4824V87H173.906V60H178.986V70.0547ZM199.535 87H194.438V67.9805H199.535V87ZM194.139 63.0586C194.139 62.2969 194.391 61.6699 194.895 61.1777C195.41 60.6855 196.107 60.4395 196.986 60.4395C197.854 60.4395 198.545 60.6855 199.061 61.1777C199.576 61.6699 199.834 62.2969 199.834 63.0586C199.834 63.832 199.57 64.4648 199.043 64.957C198.527 65.4492 197.842 65.6953 196.986 65.6953C196.131 65.6953 195.439 65.4492 194.912 64.957C194.396 64.4648 194.139 63.832 194.139 63.0586ZM208.412 67.9805L208.57 70.1777C209.93 68.4785 211.752 67.6289 214.037 67.6289C216.053 67.6289 217.553 68.2207 218.537 69.4043C219.521 70.5879 220.025 72.3574 220.049 74.7129V87H214.969V74.8359C214.969 73.7578 214.734 72.9785 214.266 72.498C213.797 72.0059 213.018 71.7598 211.928 71.7598C210.498 71.7598 209.426 72.3691 208.711 73.5879V87H203.631V67.9805H208.412ZM223.178 77.3496C223.178 74.4316 223.869 72.082 225.252 70.3008C226.646 68.5195 228.521 67.6289 230.877 67.6289C232.963 67.6289 234.586 68.3438 235.746 69.7734L235.957 67.9805H240.562V86.3672C240.562 88.0312 240.182 89.4785 239.42 90.709C238.67 91.9395 237.609 92.877 236.238 93.5215C234.867 94.166 233.262 94.4883 231.422 94.4883C230.027 94.4883 228.668 94.207 227.344 93.6445C226.02 93.0938 225.018 92.3789 224.338 91.5L226.588 88.4062C227.854 89.8242 229.389 90.5332 231.193 90.5332C232.541 90.5332 233.59 90.1699 234.34 89.4434C235.09 88.7285 235.465 87.709 235.465 86.3848V85.3652C234.293 86.6895 232.752 87.3516 230.842 87.3516C228.557 87.3516 226.705 86.4609 225.287 84.6797C223.881 82.8867 223.178 80.5137 223.178 77.5605V77.3496ZM228.258 77.7188C228.258 79.4414 228.604 80.7949 229.295 81.7793C229.986 82.752 230.936 83.2383 232.143 83.2383C233.689 83.2383 234.797 82.6582 235.465 81.498V73.5C234.785 72.3398 233.689 71.7598 232.178 71.7598C230.959 71.7598 229.998 72.2578 229.295 73.2539C228.604 74.25 228.258 75.7383 228.258 77.7188Z" fill="#FAFAFB"/>
</svg>
