<svg width="298" height="108" viewBox="0 0 298 108" fill="none" xmlns="http://www.w3.org/2000/svg">
<rect width="266" height="108" rx="24" fill="#2071C1"/>
<path d="M266 74.5V81L266.193 83.3122C266.397 85.7601 266.921 88.1706 267.753 90.4819V90.4819C269.799 96.1642 274.382 100.565 280.142 102.378L293.345 106.535C294.164 106.792 293.978 108 293.12 108H227L266 74.5Z" fill="#2071C1"/>
<path d="M25.5918 45H22.2168V19.4062H25.5918V45ZM33.5547 17.666L35.418 18.9316C34.3281 20.4199 33.7656 22.0254 33.7305 23.748V26.1387H30.4961V24.0996C30.4961 22.9043 30.7773 21.7207 31.3398 20.5488C31.9141 19.377 32.6523 18.416 33.5547 17.666ZM41.1836 25.9805L41.2715 28.0898C42.666 26.4492 44.5469 25.6289 46.9141 25.6289C49.5742 25.6289 51.3848 26.6484 52.3457 28.6875C52.9785 27.7734 53.7988 27.0352 54.8066 26.4727C55.8262 25.9102 57.0273 25.6289 58.4102 25.6289C62.582 25.6289 64.7031 27.8379 64.7734 32.2559V45H61.5215V32.4492C61.5215 31.0898 61.2109 30.0762 60.5898 29.4082C59.9688 28.7285 58.9258 28.3887 57.4609 28.3887C56.2539 28.3887 55.252 28.752 54.4551 29.4785C53.6582 30.1934 53.1953 31.1602 53.0664 32.3789V45H49.7969V32.5371C49.7969 29.7715 48.4434 28.3887 45.7363 28.3887C43.6035 28.3887 42.1445 29.2969 41.3594 31.1133V45H38.1074V25.9805H41.1836ZM77.3242 35.3496C77.3242 32.3848 77.9863 30.0234 79.3105 28.2656C80.6465 26.5078 82.4688 25.6289 84.7773 25.6289C86.6289 25.6289 88.1582 26.3203 89.3652 27.7031V18H94.4629V45H89.875L89.6289 42.9785C88.3633 44.5605 86.7344 45.3516 84.7422 45.3516C82.5039 45.3516 80.7051 44.4727 79.3457 42.7148C77.998 40.9453 77.3242 38.4902 77.3242 35.3496ZM82.4043 35.7188C82.4043 37.5 82.7148 38.8652 83.3359 39.8145C83.957 40.7637 84.8594 41.2383 86.043 41.2383C87.6133 41.2383 88.7207 40.5762 89.3652 39.252V31.7461C88.7324 30.4219 87.6367 29.7598 86.0781 29.7598C83.6289 29.7598 82.4043 31.7461 82.4043 35.7188ZM97.6094 35.3145C97.6094 33.4277 97.9727 31.7461 98.6992 30.2695C99.4258 28.793 100.469 27.6504 101.828 26.8418C103.199 26.0332 104.787 25.6289 106.592 25.6289C109.158 25.6289 111.25 26.4141 112.867 27.9844C114.496 29.5547 115.404 31.6875 115.592 34.3828L115.627 35.6836C115.627 38.6016 114.812 40.9453 113.184 42.7148C111.555 44.4727 109.369 45.3516 106.627 45.3516C103.885 45.3516 101.693 44.4727 100.053 42.7148C98.4238 40.957 97.6094 38.5664 97.6094 35.543V35.3145ZM102.689 35.6836C102.689 37.4883 103.029 38.8711 103.709 39.832C104.389 40.7812 105.361 41.2559 106.627 41.2559C107.857 41.2559 108.818 40.7871 109.51 39.8496C110.201 38.9004 110.547 37.3887 110.547 35.3145C110.547 33.5449 110.201 32.1738 109.51 31.2012C108.818 30.2285 107.846 29.7422 106.592 29.7422C105.35 29.7422 104.389 30.2285 103.709 31.2012C103.029 32.1621 102.689 33.6562 102.689 35.6836ZM135.297 38.0918L137.793 25.9805H142.697L137.846 45H133.592L129.988 33.0293L126.385 45H122.148L117.297 25.9805H122.201L124.68 38.0742L128.16 25.9805H131.834L135.297 38.0918ZM149.904 25.9805L150.062 28.1777C151.422 26.4785 153.244 25.6289 155.529 25.6289C157.545 25.6289 159.045 26.2207 160.029 27.4043C161.014 28.5879 161.518 30.3574 161.541 32.7129V45H156.461V32.8359C156.461 31.7578 156.227 30.9785 155.758 30.498C155.289 30.0059 154.51 29.7598 153.42 29.7598C151.99 29.7598 150.918 30.3691 150.203 31.5879V45H145.123V25.9805H149.904ZM22.3398 87V71.707H19.5098V67.9805H22.3398V66.3633C22.3398 64.2305 22.9492 62.5781 24.168 61.4062C25.3984 60.2227 27.1152 59.6309 29.3184 59.6309C30.0215 59.6309 30.8828 59.748 31.9023 59.9824L31.8496 63.9199C31.4277 63.8145 30.9121 63.7617 30.3027 63.7617C28.3926 63.7617 27.4375 64.6582 27.4375 66.4512V67.9805H31.2168V71.707H27.4375V87H22.3398ZM33.0625 77.3145C33.0625 75.4277 33.4258 73.7461 34.1523 72.2695C34.8789 70.793 35.9219 69.6504 37.2812 68.8418C38.6523 68.0332 40.2402 67.6289 42.0449 67.6289C44.6113 67.6289 46.7031 68.4141 48.3203 69.9844C49.9492 71.5547 50.8574 73.6875 51.0449 76.3828L51.0801 77.6836C51.0801 80.6016 50.2656 82.9453 48.6367 84.7148C47.0078 86.4727 44.8223 87.3516 42.0801 87.3516C39.3379 87.3516 37.1465 86.4727 35.5059 84.7148C33.877 82.957 33.0625 80.5664 33.0625 77.543V77.3145ZM38.1426 77.6836C38.1426 79.4883 38.4824 80.8711 39.1621 81.832C39.8418 82.7812 40.8145 83.2559 42.0801 83.2559C43.3105 83.2559 44.2715 82.7871 44.9629 81.8496C45.6543 80.9004 46 79.3887 46 77.3145C46 75.5449 45.6543 74.1738 44.9629 73.2012C44.2715 72.2285 43.2988 71.7422 42.0449 71.7422C40.8027 71.7422 39.8418 72.2285 39.1621 73.2012C38.4824 74.1621 38.1426 75.6562 38.1426 77.6836ZM64.8965 72.7441C64.2051 72.6504 63.5957 72.6035 63.0684 72.6035C61.1465 72.6035 59.8867 73.2539 59.2891 74.5547V87H54.209V67.9805H59.0078L59.1484 70.248C60.168 68.502 61.5801 67.6289 63.3848 67.6289C63.9473 67.6289 64.4746 67.7051 64.9668 67.8574L64.8965 72.7441ZM86.623 81.7441C86.623 81.123 86.3125 80.6367 85.6914 80.2852C85.082 79.9219 84.0977 79.5996 82.7383 79.3184C78.2148 78.3691 75.9531 76.4473 75.9531 73.5527C75.9531 71.8652 76.6504 70.459 78.0449 69.334C79.4512 68.1973 81.2852 67.6289 83.5469 67.6289C85.9609 67.6289 87.8887 68.1973 89.3301 69.334C90.7832 70.4707 91.5098 71.9473 91.5098 73.7637H86.4297C86.4297 73.0371 86.1953 72.4395 85.7266 71.9707C85.2578 71.4902 84.5254 71.25 83.5293 71.25C82.6738 71.25 82.0117 71.4434 81.543 71.8301C81.0742 72.2168 80.8398 72.709 80.8398 73.3066C80.8398 73.8691 81.1035 74.3262 81.6309 74.6777C82.1699 75.0176 83.0723 75.3164 84.3379 75.5742C85.6035 75.8203 86.6699 76.1016 87.5371 76.418C90.2207 77.4023 91.5625 79.1074 91.5625 81.5332C91.5625 83.2676 90.8184 84.6738 89.3301 85.752C87.8418 86.8184 85.9199 87.3516 83.5645 87.3516C81.9707 87.3516 80.5527 87.0703 79.3105 86.5078C78.0801 85.9336 77.1133 85.1543 76.4102 84.1699C75.707 83.1738 75.3555 82.1016 75.3555 80.9531H80.1719C80.2188 81.8555 80.5527 82.5469 81.1738 83.0273C81.7949 83.5078 82.627 83.748 83.6699 83.748C84.6426 83.748 85.375 83.5664 85.8672 83.2031C86.3711 82.8281 86.623 82.3418 86.623 81.7441ZM94.0586 77.3145C94.0586 75.4277 94.4219 73.7461 95.1484 72.2695C95.875 70.793 96.918 69.6504 98.2773 68.8418C99.6484 68.0332 101.236 67.6289 103.041 67.6289C105.607 67.6289 107.699 68.4141 109.316 69.9844C110.945 71.5547 111.854 73.6875 112.041 76.3828L112.076 77.6836C112.076 80.6016 111.262 82.9453 109.633 84.7148C108.004 86.4727 105.818 87.3516 103.076 87.3516C100.334 87.3516 98.1426 86.4727 96.502 84.7148C94.873 82.957 94.0586 80.5664 94.0586 77.543V77.3145ZM99.1387 77.6836C99.1387 79.4883 99.4785 80.8711 100.158 81.832C100.838 82.7812 101.811 83.2559 103.076 83.2559C104.307 83.2559 105.268 82.7871 105.959 81.8496C106.65 80.9004 106.996 79.3887 106.996 77.3145C106.996 75.5449 106.65 74.1738 105.959 73.2012C105.268 72.2285 104.295 71.7422 103.041 71.7422C101.799 71.7422 100.838 72.2285 100.158 73.2012C99.4785 74.1621 99.1387 75.6562 99.1387 77.6836ZM119.969 67.9805L120.127 70.1074C121.475 68.4551 123.297 67.6289 125.594 67.6289C128.043 67.6289 129.725 68.5957 130.639 70.5293C131.975 68.5957 133.879 67.6289 136.352 67.6289C138.414 67.6289 139.949 68.2324 140.957 69.4395C141.965 70.6348 142.469 72.4395 142.469 74.8535V87H137.371V74.8711C137.371 73.793 137.16 73.0078 136.738 72.5156C136.316 72.0117 135.572 71.7598 134.506 71.7598C132.982 71.7598 131.928 72.4863 131.342 73.9395L131.359 87H126.279V74.8887C126.279 73.7871 126.062 72.9902 125.629 72.498C125.195 72.0059 124.457 71.7598 123.414 71.7598C121.973 71.7598 120.93 72.3574 120.285 73.5527V87H115.205V67.9805H119.969ZM155.143 87.3516C152.354 87.3516 150.08 86.4961 148.322 84.7852C146.576 83.0742 145.703 80.7949 145.703 77.9473V77.4551C145.703 75.5449 146.072 73.8398 146.811 72.3398C147.549 70.8281 148.592 69.668 149.939 68.8594C151.299 68.0391 152.846 67.6289 154.58 67.6289C157.182 67.6289 159.227 68.4492 160.715 70.0898C162.215 71.7305 162.965 74.0566 162.965 77.0684V79.1426H150.854C151.018 80.3848 151.51 81.3809 152.33 82.1309C153.162 82.8809 154.211 83.2559 155.477 83.2559C157.434 83.2559 158.963 82.5469 160.064 81.1289L162.561 83.9238C161.799 85.002 160.768 85.8457 159.467 86.4551C158.166 87.0527 156.725 87.3516 155.143 87.3516ZM154.562 71.7422C153.555 71.7422 152.734 72.082 152.102 72.7617C151.48 73.4414 151.082 74.4141 150.906 75.6797H157.973V75.2754C157.949 74.1504 157.645 73.2832 157.059 72.6738C156.473 72.0527 155.641 71.7422 154.562 71.7422ZM171.947 63.3047V67.9805H175.199V71.707H171.947V81.1992C171.947 81.9023 172.082 82.4062 172.352 82.7109C172.621 83.0156 173.137 83.168 173.898 83.168C174.461 83.168 174.959 83.127 175.393 83.0449V86.8945C174.396 87.1992 173.371 87.3516 172.316 87.3516C168.754 87.3516 166.938 85.5527 166.867 81.9551V71.707H164.09V67.9805H166.867V63.3047H171.947ZM182.986 70.0547C184.334 68.4375 186.027 67.6289 188.066 67.6289C192.191 67.6289 194.283 70.0254 194.342 74.8184V87H189.262V74.959C189.262 73.8691 189.027 73.0664 188.559 72.5508C188.09 72.0234 187.311 71.7598 186.221 71.7598C184.732 71.7598 183.654 72.334 182.986 73.4824V87H177.906V60H182.986V70.0547ZM203.535 87H198.438V67.9805H203.535V87ZM198.139 63.0586C198.139 62.2969 198.391 61.6699 198.895 61.1777C199.41 60.6855 200.107 60.4395 200.986 60.4395C201.854 60.4395 202.545 60.6855 203.061 61.1777C203.576 61.6699 203.834 62.2969 203.834 63.0586C203.834 63.832 203.57 64.4648 203.043 64.957C202.527 65.4492 201.842 65.6953 200.986 65.6953C200.131 65.6953 199.439 65.4492 198.912 64.957C198.396 64.4648 198.139 63.832 198.139 63.0586ZM212.412 67.9805L212.57 70.1777C213.93 68.4785 215.752 67.6289 218.037 67.6289C220.053 67.6289 221.553 68.2207 222.537 69.4043C223.521 70.5879 224.025 72.3574 224.049 74.7129V87H218.969V74.8359C218.969 73.7578 218.734 72.9785 218.266 72.498C217.797 72.0059 217.018 71.7598 215.928 71.7598C214.498 71.7598 213.426 72.3691 212.711 73.5879V87H207.631V67.9805H212.412ZM227.178 77.3496C227.178 74.4316 227.869 72.082 229.252 70.3008C230.646 68.5195 232.521 67.6289 234.877 67.6289C236.963 67.6289 238.586 68.3438 239.746 69.7734L239.957 67.9805H244.562V86.3672C244.562 88.0312 244.182 89.4785 243.42 90.709C242.67 91.9395 241.609 92.877 240.238 93.5215C238.867 94.166 237.262 94.4883 235.422 94.4883C234.027 94.4883 232.668 94.207 231.344 93.6445C230.02 93.0938 229.018 92.3789 228.338 91.5L230.588 88.4062C231.854 89.8242 233.389 90.5332 235.193 90.5332C236.541 90.5332 237.59 90.1699 238.34 89.4434C239.09 88.7285 239.465 87.709 239.465 86.3848V85.3652C238.293 86.6895 236.752 87.3516 234.842 87.3516C232.557 87.3516 230.705 86.4609 229.287 84.6797C227.881 82.8867 227.178 80.5137 227.178 77.5605V77.3496ZM232.258 77.7188C232.258 79.4414 232.604 80.7949 233.295 81.7793C233.986 82.752 234.936 83.2383 236.143 83.2383C237.689 83.2383 238.797 82.6582 239.465 81.498V73.5C238.785 72.3398 237.689 71.7598 236.178 71.7598C234.959 71.7598 233.998 72.2578 233.295 73.2539C232.604 74.25 232.258 75.7383 232.258 77.7188Z" fill="white"/>
</svg>
